# File created by Blade
# Date/Time:  Mon Sep 22 16:45:27 2014
# Frame Rate: 120.000 fps
#------------------------------------------------------
:FULLY-SPECIFIED
:DEGREES
1755
root 3.891297 37.157204 1.701490 -25.060484 17.795396 17.943101
RightUpLeg 26.510541 -7.265695 -13.816434
RightLeg 21.223016 -0.000000 -0.000000
RightFoot -28.291327 -27.777801 12.167307
RightToeBase 6.450171 -0.000000 -0.000000
LeftUpLeg -48.232540 18.120018 13.349991
LeftLeg 23.356924 -0.000000 -0.000000
LeftFoot 13.025017 21.137845 -35.300045
LeftToeBase 0.166596 -0.000000 -0.000000
Spine 37.219955 0.983522 -0.758901
RightShoulder 2.726843 -13.226731 -18.259118
RightArm 19.952532 27.506409 47.566597
RightForeArm 15.084408 -0.000000 105.481711
RightHand 5.136531 -0.000000 -33.197785
RightHandThumb1 -24.326973 -0.000000 -32.862282
LeftShoulder -30.355792 36.119667 -8.963826
LeftArm 25.118392 -6.049542 -74.335433
LeftForeArm 30.978141 -0.000000 23.798668
LeftHand -14.696833 -0.000000 -18.556884
LeftHandThumb1 -26.253704 0.000000 33.147579
Head 14.423755 -7.392015 -14.794740
1756
root 3.875164 37.152264 1.699793 -24.966606 17.868250 17.851399
RightUpLeg 26.460874 -7.428325 -13.762451
RightLeg 21.138909 -0.000000 -0.000000
RightFoot -28.228617 -27.725501 12.053392
RightToeBase 6.270781 -0.000000 -0.000000
LeftUpLeg -48.728970 18.446762 12.832921
LeftLeg 25.011342 -0.000000 -0.000000
LeftFoot 12.084352 20.955562 -35.369688
LeftToeBase -0.118681 -0.000000 0.000000
Spine 37.157218 0.886360 -0.797893
RightShoulder 2.705920 -13.211433 -18.213659
RightArm 19.829533 27.477882 47.379694
RightForeArm 15.192428 -0.000000 105.496171
RightHand 5.167299 -0.000000 -33.230673
RightHandThumb1 -24.326973 -0.000000 -32.862282
LeftShoulder -30.365566 36.098865 -8.900277
LeftArm 25.146328 -6.151273 -74.411274
LeftForeArm 30.662314 -0.000000 23.913611
LeftHand -14.794137 -0.000000 -18.271027
LeftHandThumb1 -26.253704 0.000000 33.147579
Head 14.354330 -7.456093 -14.747000
1757
root 3.863053 37.145468 1.695331 -24.862966 17.927069 17.743949
RightUpLeg 26.367281 -7.612945 -13.713302
RightLeg 21.111250 -0.000000 -0.000000
RightFoot -28.200408 -27.616564 12.005122
RightToeBase 6.277881 -0.000000 -0.000000
LeftUpLeg -49.405321 18.791329 12.306917
LeftLeg 27.102424 -0.000000 -0.000000
LeftFoot 11.589004 21.087997 -35.288336
LeftToeBase -1.431426 -0.000000 0.000000
Spine 37.093684 0.795355 -0.788872
RightShoulder 2.650054 -13.274057 -18.211545
RightArm 19.772460 27.493274 47.228968
RightForeArm 15.309135 -0.000000 105.498296
RightHand 5.210091 0.000000 -33.246812
RightHandThumb1 -24.326973 -0.000000 -32.862282
LeftShoulder -30.376485 36.069040 -8.866368
LeftArm 25.170858 -6.196999 -74.444730
LeftForeArm 30.285440 0.000000 24.044642
LeftHand -14.815766 -0.000000 -18.305109
LeftHandThumb1 -26.253704 0.000000 33.147579
Head 14.248994 -7.415835 -14.723862
1758
root 3.851468 37.138462 1.695503 -24.802368 17.957487 17.642321
RightUpLeg 26.309304 -7.764935 -13.665912
RightLeg 21.096071 -0.000000 -0.000000
RightFoot -28.262891 -27.453904 12.076945
RightToeBase 6.381868 -0.000000 -0.000000
LeftUpLeg -50.203832 19.226954 11.745165
LeftLeg 29.661887 -0.000000 -0.000000
LeftFoot 11.371093 21.377193 -35.117299
LeftToeBase -1.817962 -0.000000 0.000000
Spine 37.078477 0.723390 -0.782308
RightShoulder 2.635922 -13.257342 -18.222346
RightArm 19.652332 27.522005 47.105762
RightForeArm 15.300048 -0.000000 105.504406
RightHand 5.169591 -0.000000 -33.151552
RightHandThumb1 -24.326973 -0.000000 -32.862282
LeftShoulder -30.365146 36.048892 -8.829669
LeftArm 25.155978 -6.231457 -74.463389
LeftForeArm 29.858930 -0.000000 24.215794
LeftHand -14.749499 -0.000000 -17.946039
LeftHandThumb1 -26.253704 0.000000 33.147579
Head 14.115536 -7.408897 -14.667396
1759
root 3.836240 37.131015 1.703053 -24.811797 17.921645 17.532751
RightUpLeg 26.305443 -7.872590 -13.594800
RightLeg 21.082738 -0.000000 -0.000000
RightFoot -28.252083 -27.327037 12.057034
RightToeBase 6.357079 -0.000000 -0.000000
LeftUpLeg -51.058382 19.753435 11.249822
LeftLeg 32.668740 -0.000000 -0.000000
LeftFoot 11.546943 21.653727 -34.890534
LeftToeBase -1.976770 -0.000000 0.000000
Spine 37.140768 0.708685 -0.758020
RightShoulder 2.636284 -13.198562 -18.226117
RightArm 19.459302 27.514622 46.890430
RightForeArm 15.350604 -0.000000 105.516585
RightHand 5.152110 -0.000000 -33.159520
RightHandThumb1 -24.326973 -0.000000 -32.862282
LeftShoulder -30.368993 36.048818 -8.789193
LeftArm 25.179830 -6.246387 -74.505410
LeftForeArm 29.515119 -0.000000 24.379693
LeftHand -14.892014 0.000000 -17.665139
LeftHandThumb1 -26.253704 0.000000 33.147579
Head 13.950504 -7.398370 -14.559586
1760
root 3.822914 37.122764 1.709425 -24.816103 17.878139 17.466422
RightUpLeg 26.275876 -7.929389 -13.537415
RightLeg 21.120798 -0.000000 -0.000000
RightFoot -28.244265 -27.254923 11.997461
RightToeBase 6.307065 -0.000000 -0.000000
LeftUpLeg -51.985196 20.270328 10.755358
LeftLeg 36.014651 -0.000000 -0.000000
LeftFoot 11.948405 21.956399 -34.294261
LeftToeBase -1.070707 -0.000000 0.000000
Spine 37.221675 0.758299 -0.768915
RightShoulder 2.599543 -13.273027 -18.223543
RightArm 19.392768 27.598415 46.772317
RightForeArm 15.432919 -0.000000 105.521470
RightHand 5.116629 -0.000000 -33.052712
RightHandThumb1 -24.326973 -0.000000 -32.862282
LeftShoulder -30.345561 36.014638 -8.692345
LeftArm 25.202078 -6.290245 -74.577663
LeftForeArm 29.377405 -0.000000 24.512297
LeftHand -14.766793 -0.000000 -17.545172
LeftHandThumb1 -26.253704 0.000000 33.147579
Head 13.786331 -7.395134 -14.399060
1761
root 3.812552 37.115036 1.721536 -24.858438 17.813079 17.428516
RightUpLeg 26.276236 -7.949109 -13.506456
RightLeg 21.191545 -0.000000 -0.000000
RightFoot -28.282856 -27.179264 11.982150
RightToeBase 6.272988 -0.000000 -0.000000
LeftUpLeg -52.911616 20.759818 10.326949
LeftLeg 39.700988 -0.000000 -0.000000
LeftFoot 12.388491 22.169024 -34.024313
LeftToeBase -0.448743 -0.000000 0.000000
Spine 37.355945 0.845027 -0.807078
RightShoulder 2.557980 -13.257915 -18.206805
RightArm 19.272855 27.640242 46.640300
RightForeArm 15.514250 -0.000000 105.513706
RightHand 5.144763 -0.000000 -33.061533
RightHandThumb1 -24.326973 -0.000000 -32.862282
LeftShoulder -30.361134 36.020876 -8.638744
LeftArm 25.291637 -6.281444 -74.595950
LeftForeArm 29.135360 -0.000000 24.641230
LeftHand -14.723026 -0.000000 -17.666950
LeftHandThumb1 -26.253704 0.000000 33.147579
Head 13.596348 -7.472073 -14.244603
1762
root 3.805592 37.107723 1.737956 -24.913981 17.698647 17.432142
RightUpLeg 26.272007 -7.889793 -13.482702
RightLeg 21.297975 -0.000000 -0.000000
RightFoot -28.327310 -27.154679 11.932118
RightToeBase 6.267839 -0.000000 -0.000000
LeftUpLeg -53.840184 21.282698 9.914629
LeftLeg 43.687788 -0.000000 -0.000000
LeftFoot 12.710543 22.275360 -33.865328
LeftToeBase 0.111202 -0.000000 -0.000000
Spine 37.498911 0.990910 -0.858310
RightShoulder 2.525783 -13.320606 -18.218091
RightArm 19.218434 27.726110 46.580070
RightForeArm 15.542066 0.000000 105.500715
RightHand 5.171774 -0.000000 -33.015340
RightHandThumb1 -24.326973 -0.000000 -32.862282
LeftShoulder -30.284500 36.000931 -8.529387
LeftArm 25.281711 -6.220019 -74.570952
LeftForeArm 28.958849 -0.000000 24.755853
LeftHand -14.691389 -0.000000 -17.585232
LeftHandThumb1 -26.253704 0.000000 33.147579
Head 13.439598 -7.592145 -14.097250
1763
root 3.798425 37.098779 1.762353 -25.003186 17.561982 17.388371
RightUpLeg 26.308216 -7.811444 -13.392264
RightLeg 21.371587 -0.000000 -0.000000
RightFoot -28.377228 -27.157287 11.903944
RightToeBase 6.271984 -0.000000 -0.000000
LeftUpLeg -54.832778 21.847099 9.529853
LeftLeg 47.986829 -0.000000 -0.000000
LeftFoot 13.058030 22.204592 -33.431821
LeftToeBase 0.570199 -0.000000 -0.000000
Spine 37.634925 1.100558 -0.866302
RightShoulder 2.506398 -13.386862 -18.240387
RightArm 19.202432 27.791692 46.503993
RightForeArm 15.635952 -0.000000 105.466041
RightHand 5.216228 0.000000 -33.120553
RightHandThumb1 -24.326973 -0.000000 -32.862282
LeftShoulder -30.316651 36.036901 -8.529587
LeftArm 25.352626 -6.149323 -74.516184
LeftForeArm 28.716150 -0.000000 24.851616
LeftHand -14.585209 -0.000000 -17.585135
LeftHandThumb1 -26.253704 0.000000 33.147579
Head 13.330871 -7.673674 -14.023450
1764
root 3.800221 37.092473 1.785777 -25.066791 17.438564 17.412306
RightUpLeg 26.318298 -7.645067 -13.325022
RightLeg 21.478539 -0.000000 -0.000000
RightFoot -28.364488 -27.285751 11.780846
RightToeBase 6.061378 -0.000000 -0.000000
LeftUpLeg -55.785860 22.288962 9.208642
LeftLeg 52.497733 -0.000000 -0.000000
LeftFoot 13.356783 21.997210 -33.337393
LeftToeBase 0.755946 -0.000000 -0.000000
Spine 37.752546 1.223634 -0.940795
RightShoulder 2.474134 -13.425128 -18.249996
RightArm 19.188737 27.818197 46.441542
RightForeArm 15.778904 0.000000 105.420679
RightHand 5.281652 -0.000000 -33.089132
RightHandThumb1 -24.326973 -0.000000 -32.862282
LeftShoulder -30.309109 36.012348 -8.500407
LeftArm 25.348273 -6.086818 -74.455321
LeftForeArm 28.642746 0.000000 24.947628
LeftHand -14.599293 0.000000 -17.731778
LeftHandThumb1 -26.253704 0.000000 33.147579
Head 13.249518 -7.670525 -13.917574
